runtti.ufo
<glyph name="numbersign" format="2">
  <advance width="806"/>
  <unicode hex="0023"/>
  <outline>
    <contour>
      <point x="364" y="454" type="line"/>
      <point x="375" y="422" type="line"/>
      <point x="457" y="682" type="line"/>
      <point x="506" y="644" type="line"/>
      <point x="259" y="644" type="line"/>
      <point x="343" y="682" type="line"/>
      <point x="273" y="422" type="line"/>
      <point x="295" y="454" type="line"/>
      <point x="-10" y="457" type="line"/>
      <point x="113" y="501" type="line"/>
      <point x="56" y="296" type="line"/>
      <point x="2" y="359" type="line"/>
      <point x="274" y="363" type="line"/>
      <point x="263" y="387" type="line"/>
      <point x="216" y="227" type="line"/>
      <point x="239" y="244" type="line"/>
      <point x="-60" y="247" type="line"/>
      <point x="54" y="291" type="line"/>
      <point x="-3" y="86" type="line"/>
      <point x="-48" y="149" type="line"/>
      <point x="211" y="153" type="line"/>
      <point x="201" y="182" type="line"/>
      <point x="117" y="-78" type="line"/>
      <point x="69" y="-39" type="line"/>
      <point x="316" y="-39" type="line"/>
      <point x="231" y="-78" type="line"/>
      <point x="303" y="182" type="line"/>
      <point x="275" y="153" type="line"/>
      <point x="434" y="153" type="line"/>
      <point x="424" y="182" type="line"/>
      <point x="341" y="-78" type="line"/>
      <point x="293" y="-39" type="line"/>
      <point x="540" y="-39" type="line"/>
      <point x="455" y="-78" type="line"/>
      <point x="526" y="182" type="line"/>
      <point x="493" y="153" type="line"/>
      <point x="795" y="149" type="line"/>
      <point x="687" y="87" type="line"/>
      <point x="744" y="291" type="line"/>
      <point x="803" y="247" type="line"/>
      <point x="528" y="244" type="line"/>
      <point x="538" y="226" type="line"/>
      <point x="586" y="387" type="line"/>
      <point x="551" y="363" type="line"/>
      <point x="845" y="359" type="line"/>
      <point x="746" y="297" type="line"/>
      <point x="803" y="501" type="line"/>
      <point x="853" y="457" type="line"/>
      <point x="582" y="454" type="line"/>
      <point x="598" y="422" type="line"/>
      <point x="681" y="682" type="line"/>
      <point x="730" y="644" type="line"/>
      <point x="483" y="644" type="line"/>
      <point x="567" y="682" type="line"/>
      <point x="496" y="422" type="line"/>
      <point x="522" y="454" type="line"/>
    </contour>
    <contour>
      <point x="365" y="385" type="line"/>
      <point x="340" y="363" type="line"/>
      <point x="497" y="363" type="line"/>
      <point x="485" y="387" type="line"/>
      <point x="437" y="228" type="line"/>
      <point x="456" y="244" type="line"/>
      <point x="303" y="244" type="line"/>
      <point x="317" y="227" type="line"/>
    </contour>
  </outline>
</glyph>
<glyph name="quotesingle" format="2">
  <advance width="240"/>
  <unicode hex="0027"/>
  <outline>
    <contour>
      <point x="151" y="856" type="line"/>
      <point x="238" y="790" type="line"/>
      <point x="33" y="790" type="line"/>
      <point x="50" y="829" type="line"/>
      <point x="32" y="531" type="line"/>
      <point x="13" y="586" type="line"/>
      <point x="180" y="568" type="line"/>
      <point x="96" y="516" type="line"/>
      <point x="228" y="814" type="line"/>
      <point x="261" y="712" type="line"/>
    </contour>
  </outline>
</glyph>
<glyph name="parenleft" format="2">
  <advance width="293"/>
  <unicode hex="0028"/>
  <outline>
    <contour>
      <point x="-12" y="472" type="line"/>
      <point x="37" y="604" type="line"/>
      <point x="35" y="135" type="line"/>
      <point x="-12" y="253" type="line"/>
      <point x="193" y="-176" type="line"/>
      <point x="118" y="-153" type="line"/>
      <point x="310" y="-59" type="line"/>
      <point x="283" y="-112" type="line"/>
      <point x="93" y="249" type="line"/>
      <point x="124" y="135" type="line"/>
      <point x="138" y="597" type="line"/>
      <point x="80" y="462" type="line"/>
      <point x="292" y="817" type="line"/>
      <point x="318" y="759" type="line"/>
      <point x="114" y="876" type="line"/>
      <point x="207" y="885" type="line"/>
    </contour>
  </outline>
</glyph>
<glyph name="asterisk" format="2">
  <advance width="246"/>
  <unicode hex="002A"/>
  <outline>
    <contour>
      <point x="122" y="733" type="line"/>
      <point x="-1" y="676" type="line"/>
      <point x="-4" y="708" type="line"/>
      <point x="70" y="589" type="line"/>
      <point x="14" y="608" type="line"/>
      <point x="123" y="681" type="line"/>
      <point x="247" y="737" type="line"/>
      <point x="249" y="706" type="line"/>
      <point x="175" y="825" type="line"/>
      <point x="231" y="806" type="line"/>
    </contour>
    <contour>
      <point x="123" y="733" type="line"/>
      <point x="16" y="808" type="line"/>
      <point x="72" y="825" type="line"/>
      <point x="-4" y="708" type="line"/>
      <point x="0" y="739" type="line"/>
      <point x="122" y="681" type="line"/>
      <point x="229" y="606" type="line"/>
      <point x="173" y="589" type="line"/>
      <point x="249" y="706" type="line"/>
      <point x="245" y="675" type="line"/>
    </contour>
    <contour>
      <point x="98" y="719" type="line"/>
      <point x="82" y="586" type="line"/>
      <point x="54" y="600" type="line"/>
      <point x="195" y="601" type="line"/>
      <point x="152" y="571" type="line"/>
      <point x="144" y="695" type="line"/>
      <point x="160" y="828" type="line"/>
      <point x="187" y="814" type="line"/>
      <point x="46" y="813" type="line"/>
      <point x="90" y="851" type="line"/>
    </contour>
  </outline>
</glyph>
<glyph name="hyphen" format="2">
  <advance width="371"/>
  <unicode hex="002D"/>
  <outline>
    <contour>
      <point x="31" y="212" type="line"/>
      <point x="-46" y="278" type="line"/>
      <point x="243" y="283" type="line"/>
      <point x="417" y="280" type="line"/>
      <point x="326" y="225" type="line"/>
      <point x="339" y="423" type="line"/>
      <point x="425" y="374" type="line"/>
      <point x="201" y="373" type="line"/>
      <point x="-58" y="378" type="line"/>
      <point x="45" y="423" type="line"/>
    </contour>
  </outline>
</glyph>
<glyph name="five" format="2">
  <advance width="601"/>
  <unicode hex="0035"/>
  <outline>
    <contour>
      <point x="39" y="790" type="line"/>
      <point x="106" y="821" type="line"/>
      <point x="60" y="311" type="line"/>
      <point x="2" y="397" type="line"/>
      <point x="285" y="284" type="line"/>
      <point x="87" y="304" type="line"/>
      <point x="382" y="324" type="line"/>
      <point x="252" y="379" type="line"/>
      <point x="389" y="260" type="line"/>
      <point x="342" y="396" type="line"/>
      <point x="324" y="115" type="line"/>
      <point x="373" y="189" type="line"/>
      <point x="255" y="128" type="line"/>
      <point x="355" y="133" type="line"/>
      <point x="12" y="224" type="line"/>
      <point x="70" y="327" type="line"/>
      <point x="-36" y="-41" type="line"/>
      <point x="-55" y="37" type="line"/>
      <point x="355" y="-28" type="line"/>
      <point x="286" y="-28" type="line"/>
      <point x="639" y="137" type="line"/>
      <point x="496" y="-24" type="line"/>
      <point x="560" y="501" type="line"/>
      <point x="624" y="335" type="line"/>
      <point x="298" y="535" type="line"/>
      <point x="490" y="474" type="line"/>
      <point x="232" y="470" type="line"/>
      <point x="260" y="436" type="line"/>
      <point x="269" y="680" type="line"/>
      <point x="196" y="631" type="line"/>
      <point x="626" y="592" type="line"/>
      <point x="524" y="548" type="line"/>
      <point x="543" y="842" type="line"/>
      <point x="598" y="793" type="line"/>
    </contour>
  </outline>
</glyph>
<glyph name="eight" format="2">
  <advance width="636"/>
  <unicode hex="0038"/>
  <outline>
    <contour>
      <point x="326" y="479" type="line"/>
      <point x="247" y="363" type="line"/>
      <point x="450" y="287" type="line"/>
      <point x="403" y="434" type="line"/>
      <point x="383" y="110" type="line"/>
      <point x="429" y="213" type="line"/>
      <point x="311" y="152" type="line"/>
      <point x="505" y="156" type="line"/>
      <point x="140" y="198" type="line"/>
      <point x="240" y="123" type="line"/>
      <point x="242" y="414" type="line"/>
      <point x="98" y="231" type="line"/>
      <point x="366" y="385" type="line"/>
      <point x="248" y="461" type="line"/>
      <point x="-19" y="345" type="line"/>
      <point x="62" y="410" type="line"/>
      <point x="36" y="27" type="line"/>
      <point x="-79" y="133" type="line"/>
      <point x="378" y="-27" type="line"/>
      <point x="342" y="-28" type="line"/>
      <point x="695" y="132" type="line"/>
      <point x="559" y="-29" type="line"/>
      <point x="606" y="496" type="line"/>
      <point x="720" y="347" type="line"/>
    </contour>
    <contour>
      <point x="281" y="403" type="line"/>
      <point x="351" y="477" type="line"/>
      <point x="254" y="515" type="line"/>
      <point x="263" y="428" type="line"/>
      <point x="285" y="683" type="line"/>
      <point x="247" y="593" type="line"/>
      <point x="378" y="667" type="line"/>
      <point x="140" y="648" type="line"/>
      <point x="503" y="594" type="line"/>
      <point x="408" y="673" type="line"/>
      <point x="399" y="461" type="line"/>
      <point x="431" y="539" type="line"/>
      <point x="290" y="457" type="line"/>
      <point x="380" y="402" type="line"/>
      <point x="656" y="551" type="line"/>
      <point x="569" y="446" type="line"/>
      <point x="598" y="744" type="line"/>
      <point x="721" y="664" type="line"/>
      <point x="264" y="827" type="line"/>
      <point x="464" y="888" type="line"/>
      <point x="-59" y="628" type="line"/>
      <point x="103" y="824" type="line"/>
      <point x="74" y="303" type="line"/>
      <point x="8" y="496" type="line"/>
    </contour>
  </outline>
</glyph>
<glyph name="D" format="2">
  <advance width="685"/>
  <unicode hex="0044"/>
  <anchor x="368" y="790" name="top"/>
  <outline>
    <contour>
      <point x="281" y="765" type="line"/>
      <point x="181" y="659" type="line"/>
      <point x="211" y="560" type="line"/>
      <point x="240" y="624" type="line"/>
      <point x="168" y="588" type="line"/>
      <point x="69" y="527" type="line"/>
      <point x="90" y="575" type="line"/>
      <point x="39" y="-43" type="line"/>
      <point x="12" y="52" type="line"/>
      <point x="478" y="-41" type="line"/>
      <point x="331" y="-63" type="line"/>
      <point x="751" y="173" type="line"/>
      <point x="593" y="-52" type="line"/>
      <point x="681" y="862" type="line"/>
      <point x="711" y="610" type="line"/>
      <point x="433" y="822" type="line"/>
      <point x="642" y="790" type="line"/>
      <point x="-40" y="793" type="line"/>
      <point x="34" y="842" type="line"/>
      <point x="15" y="548" type="line"/>
      <point x="-68" y="588" type="line"/>
      <point x="505" y="630" type="line"/>
      <point x="376" y="649" type="line"/>
      <point x="477" y="565" type="line"/>
      <point x="454" y="685" type="line"/>
      <point x="434" y="79" type="line"/>
      <point x="467" y="201" type="line"/>
      <point x="382" y="138" type="line"/>
      <point x="525" y="159" type="line"/>
      <point x="215" y="168" type="line"/>
      <point x="258" y="116" type="line"/>
    </contour>
  </outline>
</glyph>
<glyph name="G" format="2">
  <advance width="646"/>
  <unicode hex="0047"/>
  <anchor x="320" y="0" name="bottom"/>
  <anchor x="359" y="790" name="top"/>
  <outline>
    <contour>
      <point x="419" y="87" type="line"/>
      <point x="570" y="198" type="line"/>
      <point x="315" y="141" type="line"/>
      <point x="458" y="140" type="line"/>
      <point x="213" y="210" type="line"/>
      <point x="242" y="141" type="line"/>
      <point x="268" y="637" type="line"/>
      <point x="217" y="591" type="line"/>
      <point x="340" y="660" type="line"/>
      <point x="248" y="643" type="line"/>
      <point x="601" y="576" type="line"/>
      <point x="554" y="538" type="line"/>
      <point x="613" y="827" type="line"/>
      <point x="685" y="767" type="line"/>
      <point x="225" y="820" type="line"/>
      <point x="414" y="860" type="line"/>
      <point x="-62" y="626" type="line"/>
      <point x="94" y="795" type="line"/>
      <point x="26" y="15" type="line"/>
      <point x="-25" y="132" type="line"/>
      <point x="394" y="-58" type="line"/>
      <point x="180" y="-49" type="line"/>
      <point x="621" y="40" type="line"/>
      <point x="579" y="5" type="line"/>
      <point x="625" y="535" type="line"/>
      <point x="668" y="396" type="line"/>
      <point x="554" y="536" type="line"/>
      <point x="653" y="481" type="line"/>
      <point x="288" y="484" type="line"/>
      <point x="362" y="533" type="line"/>
      <point x="343" y="239" type="line"/>
      <point x="260" y="284" type="line"/>
      <point x="482" y="304" type="line"/>
      <point x="431" y="387" type="line"/>
    </contour>
  </outline>
</glyph>
<glyph name="H" format="2">
  <advance width="712"/>
  <unicode hex="0048"/>
  <outline>
    <contour>
      <point x="465" y="873" type="line"/>
      <point x="411" y="-54" type="line"/>
      <point x="368" y="85" type="line"/>
      <point x="482" y="-55" type="line"/>
      <point x="383" y="0" type="line"/>
      <point x="748" y="-3" type="line"/>
      <point x="674" y="-52" type="line"/>
      <point x="693" y="242" type="line"/>
      <point x="776" y="197" type="line"/>
      <point x="554" y="177" type="line"/>
      <point x="605" y="94" type="line"/>
      <point x="675" y="873" type="line"/>
      <point x="696" y="790" type="line"/>
      <point x="416" y="790" type="line"/>
    </contour>
    <contour>
      <point x="247" y="-83" type="line"/>
      <point x="301" y="844" type="line"/>
      <point x="344" y="705" type="line"/>
      <point x="230" y="845" type="line"/>
      <point x="329" y="790" type="line"/>
      <point x="-36" y="793" type="line"/>
      <point x="38" y="842" type="line"/>
      <point x="19" y="548" type="line"/>
      <point x="-64" y="593" type="line"/>
      <point x="158" y="613" type="line"/>
      <point x="107" y="696" type="line"/>
      <point x="37" y="-83" type="line"/>
      <point x="16" y="0" type="line"/>
      <point x="296" y="0" type="line"/>
    </contour>
    <contour>
      <point x="181" y="413" type="line"/>
      <point x="182" y="304" type="line"/>
      <point x="514" y="388" type="line"/>
      <point x="517" y="499" type="line"/>
    </contour>
  </outline>
</glyph>
<glyph name="M" format="2">
  <advance width="807"/>
  <unicode hex="004D"/>
  <anchor x="458" y="790" name="top"/>
  <outline>
    <contour>
      <point x="547" y="790" type="line"/>
      <point x="613" y="810" type="line"/>
      <point x="414" y="393" type="line"/>
      <point x="457" y="393" type="line"/>
      <point x="304" y="810" type="line"/>
      <point x="379" y="790" type="line"/>
      <point x="-36" y="793" type="line"/>
      <point x="38" y="842" type="line"/>
      <point x="19" y="548" type="line"/>
      <point x="-64" y="593" type="line"/>
      <point x="158" y="613" type="line"/>
      <point x="107" y="696" type="line"/>
      <point x="41" y="-83" type="line"/>
      <point x="16" y="0" type="line"/>
      <point x="296" y="0" type="line"/>
      <point x="249" y="-83" type="line"/>
      <point x="272" y="517" type="line"/>
      <point x="243" y="481" type="line"/>
      <point x="304" y="481" type="line"/>
      <point x="264" y="506" type="line"/>
      <point x="290" y="436" type="line"/>
      <point x="419" y="117" type="line"/>
      <point x="345" y="214" type="line"/>
      <point x="488" y="214" type="line"/>
      <point x="390" y="118" type="line"/>
      <point x="559" y="436" type="line"/>
      <point x="596" y="513" type="line"/>
      <point x="558" y="481" type="line"/>
      <point x="619" y="481" type="line"/>
      <point x="587" y="517" type="line"/>
      <point x="531" y="-83" type="line"/>
      <point x="487" y="0" type="line"/>
      <point x="767" y="0" type="line"/>
      <point x="738" y="-83" type="line"/>
      <point x="778" y="824" type="line"/>
      <point x="830" y="790" type="line"/>
    </contour>
  </outline>
</glyph>
<glyph name="X" format="2">
  <advance width="744"/>
  <unicode hex="0058"/>
  <outline>
    <contour>
      <point x="202" y="614" type="line"/>
      <point x="148" y="626" type="line"/>
      <point x="263" y="357" type="line"/>
      <point x="233" y="352" type="line"/>
      <point x="380" y="352" type="line"/>
      <point x="291" y="410" type="line"/>
      <point x="456" y="-32" type="line"/>
      <point x="418" y="0" type="line"/>
      <point x="810" y="-4" type="line"/>
      <point x="705" y="-67" type="line"/>
      <point x="730" y="312" type="line"/>
      <point x="847" y="197" type="line"/>
      <point x="555" y="176" type="line"/>
      <point x="606" y="164" type="line"/>
      <point x="481" y="451" type="line"/>
      <point x="499" y="471" type="line"/>
      <point x="383" y="471" type="line"/>
      <point x="454" y="400" type="line"/>
      <point x="298" y="822" type="line"/>
      <point x="338" y="790" type="line"/>
      <point x="-58" y="794" type="line"/>
      <point x="47" y="857" type="line"/>
      <point x="22" y="478" type="line"/>
      <point x="-95" y="593" type="line"/>
    </contour>
    <contour>
      <point x="742" y="604" type="line"/>
      <point x="689" y="862" type="line"/>
      <point x="742" y="790" type="line"/>
      <point x="316" y="794" type="line"/>
      <point x="420" y="857" type="line"/>
      <point x="395" y="478" type="line"/>
      <point x="278" y="590" type="line"/>
      <point x="554" y="615" type="line"/>
      <point x="560" y="646" type="line"/>
      <point x="335" y="333" type="line"/>
      <point x="343" y="419" type="line"/>
      <point x="469" y="260" type="line"/>
      <point x="385" y="269" type="line"/>
      <point x="752" y="699" type="line"/>
    </contour>
    <contour>
      <point x="-3" y="186" type="line"/>
      <point x="50" y="-72" type="line"/>
      <point x="-3" y="0" type="line"/>
      <point x="430" y="-4" type="line"/>
      <point x="325" y="-67" type="line"/>
      <point x="350" y="312" type="line"/>
      <point x="454" y="198" type="line"/>
      <point x="153" y="173" type="line"/>
      <point x="155" y="146" type="line"/>
      <point x="393" y="470" type="line"/>
      <point x="386" y="384" type="line"/>
      <point x="260" y="542" type="line"/>
      <point x="342" y="537" type="line"/>
      <point x="-34" y="94" type="line"/>
    </contour>
  </outline>
</glyph>
<glyph name="a" format="2">
  <advance width="584"/>
  <unicode hex="0061"/>
  <anchor x="466" y="0" name="ogonek"/>
  <anchor x="300" y="600" name="top"/>
  <outline>
    <contour>
      <point x="-31" y="411" type="line"/>
      <point x="367" y="467" type="line"/>
      <point x="299" y="493" type="line"/>
      <point x="352" y="430" type="line"/>
      <point x="334" y="500" type="line"/>
      <point x="334" y="441" type="line"/>
      <point x="325" y="431" type="line"/>
      <point x="303" y="-5" type="line"/>
      <point x="268" y="92" type="line"/>
      <point x="532" y="-40" type="line"/>
      <point x="467" y="-64" type="line"/>
      <point x="595" y="168" type="line"/>
      <point x="628" y="129" type="line"/>
      <point x="442" y="180" type="line"/>
      <point x="479" y="129" type="line"/>
      <point x="530" y="663" type="line"/>
      <point x="560" y="501" type="line"/>
      <point x="357" y="649" type="line"/>
      <point x="496" y="600" type="line"/>
      <point x="-3" y="603" type="line"/>
      <point x="71" y="652" type="line"/>
      <point x="52" y="358" type="line"/>
    </contour>
    <contour>
      <point x="75" y="211" type="line"/>
      <point x="364" y="398" type="line"/>
      <point x="346" y="460" type="line"/>
      <point x="-45" y="231" type="line"/>
      <point x="63" y="319" type="line"/>
      <point x="-1" y="48" type="line"/>
      <point x="-108" y="138" type="line"/>
      <point x="304" y="-41" type="line"/>
      <point x="232" y="-40" type="line"/>
      <point x="412" y="177" type="line"/>
      <point x="427" y="125" type="line"/>
      <point x="116" y="194" type="line"/>
      <point x="202" y="155" type="line"/>
      <point x="212" y="352" type="line"/>
    </contour>
  </outline>
</glyph>
<glyph name="h" format="2">
  <advance width="645"/>
  <unicode hex="0068"/>
  <outline>
    <contour>
      <point x="400" y="-50" type="line"/>
      <point x="332" y="0" type="line"/>
      <point x="661" y="-3" type="line"/>
      <point x="587" y="-52" type="line"/>
      <point x="606" y="242" type="line"/>
      <point x="689" y="189" type="line"/>
      <point x="423" y="151" type="line"/>
      <point x="494" y="109" type="line"/>
      <point x="624" y="571" type="line"/>
      <point x="675" y="483" type="line"/>
      <point x="263" y="642" type="line"/>
      <point x="338" y="641" type="line"/>
      <point x="156" y="433" type="line"/>
      <point x="140" y="472" type="line"/>
      <point x="451" y="413" type="line"/>
      <point x="394" y="466" type="line"/>
      <point x="327" y="-36" type="line"/>
      <point x="286" y="90" type="line"/>
    </contour>
    <contour>
      <point x="272" y="848" type="line"/>
      <point x="321" y="730" type="line"/>
      <point x="207" y="870" type="line"/>
      <point x="284" y="820" type="line"/>
      <point x="-50" y="823" type="line"/>
      <point x="25" y="872" type="line"/>
      <point x="6" y="578" type="line"/>
      <point x="-78" y="627" type="line"/>
      <point x="168" y="675" type="line"/>
      <point x="96" y="719" type="line"/>
      <point x="36" y="-63" type="line"/>
      <point x="-5" y="0" type="line"/>
      <point x="281" y="0" type="line"/>
      <point x="234" y="-63" type="line"/>
      <point x="250" y="537" type="line"/>
      <point x="243" y="539" type="line"/>
    </contour>
  </outline>
</glyph>
<glyph name="k" format="2">
  <advance width="600"/>
  <unicode hex="006B"/>
  <anchor x="296" y="0" name="bottom"/>
  <anchor x="177" y="820" name="top"/>
  <outline>
    <contour>
      <point x="272" y="848" type="line"/>
      <point x="321" y="730" type="line"/>
      <point x="207" y="870" type="line"/>
      <point x="284" y="820" type="line"/>
      <point x="-50" y="823" type="line"/>
      <point x="25" y="872" type="line"/>
      <point x="6" y="578" type="line"/>
      <point x="-78" y="627" type="line"/>
      <point x="168" y="675" type="line"/>
      <point x="97" y="719" type="line"/>
      <point x="37" y="-63" type="line"/>
      <point x="-5" y="0" type="line"/>
      <point x="281" y="0" type="line"/>
      <point x="234" y="-63" type="line"/>
      <point x="250" y="537" type="line"/>
      <point x="243" y="539" type="line"/>
    </contour>
    <contour>
      <point x="511" y="441" type="line"/>
      <point x="184" y="230" type="line"/>
      <point x="189" y="287" type="line"/>
      <point x="233" y="139" type="line"/>
      <point x="201" y="169" type="line"/>
      <point x="631" y="421" type="line"/>
      <point x="515" y="284" type="line"/>
      <point x="589" y="553" type="line"/>
      <point x="685" y="464" type="line"/>
      <point x="262" y="643" type="line"/>
      <point x="334" y="642" type="line"/>
      <point x="154" y="425" type="line"/>
      <point x="139" y="478" type="line"/>
      <point x="461" y="408" type="line"/>
      <point x="386" y="447" type="line"/>
      <point x="379" y="302" type="line"/>
    </contour>
    <contour>
      <point x="352" y="0" type="line"/>
      <point x="637" y="-3" type="line"/>
      <point x="563" y="-52" type="line"/>
      <point x="582" y="242" type="line"/>
      <point x="665" y="184" type="line"/>
      <point x="443" y="164" type="line"/>
      <point x="517" y="142" type="line"/>
      <point x="418" y="324" type="line"/>
      <point x="286" y="266" type="line"/>
      <point x="386" y="-53" type="line"/>
    </contour>
  </outline>
</glyph>
<glyph name="q" format="2">
  <advance width="586"/>
  <unicode hex="0071"/>
  <outline>
    <contour>
      <point x="309" y="-324" type="line"/>
      <point x="269" y="-220" type="line"/>
      <point x="555" y="-220" type="line"/>
      <point x="509" y="-316" type="line"/>
      <point x="522" y="89" type="line"/>
      <point x="559" y="682" type="line"/>
      <point x="583" y="539" type="line"/>
      <point x="137" y="647" type="line"/>
      <point x="343" y="660" type="line"/>
      <point x="-71" y="468" type="line"/>
      <point x="71" y="648" type="line"/>
      <point x="38" y="15" type="line"/>
      <point x="-58" y="77" type="line"/>
      <point x="330" y="-39" type="line"/>
      <point x="255" y="-38" type="line"/>
      <point x="437" y="166" type="line"/>
      <point x="453" y="127" type="line"/>
      <point x="166" y="157" type="line"/>
      <point x="230" y="111" type="line"/>
      <point x="216" y="517" type="line"/>
      <point x="170" y="420" type="line"/>
      <point x="271" y="477" type="line"/>
      <point x="161" y="461" type="line"/>
      <point x="405" y="436" type="line"/>
      <point x="359" y="543" type="line"/>
      <point x="346" y="78" type="line"/>
      <point x="341" y="64" type="line"/>
      <point x="352" y="60" type="line"/>
    </contour>
  </outline>
</glyph>
<glyph name="u" format="2">
  <advance width="658"/>
  <unicode hex="0075"/>
  <anchor x="540" y="0" name="ogonek"/>
  <anchor x="361" y="600" name="top"/>
  <outline>
    <contour>
      <point x="246" y="655" type="line"/>
      <point x="309" y="600" type="line"/>
      <point x="-20" y="603" type="line"/>
      <point x="54" y="652" type="line"/>
      <point x="35" y="358" type="line"/>
      <point x="-48" y="411" type="line"/>
      <point x="218" y="449" type="line"/>
      <point x="147" y="491" type="line"/>
      <point x="17" y="29" type="line"/>
      <point x="-34" y="118" type="line"/>
      <point x="378" y="-41" type="line"/>
      <point x="306" y="-40" type="line"/>
      <point x="486" y="177" type="line"/>
      <point x="501" y="129" type="line"/>
      <point x="190" y="188" type="line"/>
      <point x="247" y="134" type="line"/>
      <point x="314" y="636" type="line"/>
      <point x="360" y="515" type="line"/>
    </contour>
    <contour>
      <point x="407" y="663" type="line"/>
      <point x="377" y="-5" type="line"/>
      <point x="342" y="92" type="line"/>
      <point x="606" y="-40" type="line"/>
      <point x="541" y="-64" type="line"/>
      <point x="669" y="168" type="line"/>
      <point x="702" y="129" type="line"/>
      <point x="516" y="180" type="line"/>
      <point x="553" y="129" type="line"/>
      <point x="604" y="663" type="line"/>
      <point x="646" y="600" type="line"/>
      <point x="360" y="600" type="line"/>
    </contour>
  </outline>
</glyph>
<glyph name="w" format="2">
  <advance width="908"/>
  <unicode hex="0077"/>
  <anchor x="503" y="600" name="top"/>
  <outline>
    <contour>
      <point x="606" y="168" type="line"/>
      <point x="548" y="82" type="line"/>
      <point x="603" y="663" type="line"/>
      <point x="645" y="600" type="line"/>
      <point x="359" y="600" type="line"/>
      <point x="406" y="663" type="line"/>
      <point x="381" y="116" type="line"/>
      <point x="448" y="128" type="line"/>
      <point x="239" y="218" type="line"/>
      <point x="261" y="124" type="line"/>
      <point x="313" y="636" type="line"/>
      <point x="359" y="515" type="line"/>
      <point x="245" y="655" type="line"/>
      <point x="308" y="600" type="line"/>
      <point x="-21" y="603" type="line"/>
      <point x="53" y="652" type="line"/>
      <point x="34" y="358" type="line"/>
      <point x="-49" y="411" type="line"/>
      <point x="217" y="449" type="line"/>
      <point x="146" y="491" type="line"/>
      <point x="36" y="19" type="line"/>
      <point x="15" y="148" type="line"/>
      <point x="407" y="-57" type="line"/>
      <point x="285" y="-56" type="line"/>
    </contour>
    <contour>
      <point x="536" y="229" type="line"/>
      <point x="357" y="70" type="line"/>
      <point x="341" y="105" type="line"/>
      <point x="692" y="-57" type="line"/>
      <point x="570" y="-56" type="line"/>
      <point x="891" y="168" type="line"/>
      <point x="833" y="82" type="line"/>
      <point x="888" y="663" type="line"/>
      <point x="940" y="600" type="line"/>
      <point x="654" y="600" type="line"/>
      <point x="691" y="663" type="line"/>
      <point x="666" y="116" type="line"/>
      <point x="733" y="128" type="line"/>
      <point x="473" y="220" type="line"/>
    </contour>
  </outline>
</glyph>
<glyph name="y" format="2">
  <advance width="632"/>
  <unicode hex="0079"/>
  <anchor x="359" y="600" name="top"/>
  <outline>
    <contour>
      <point x="-16" y="-177" type="line"/>
      <point x="504" y="-260" type="line"/>
      <point x="345" y="-258" type="line"/>
      <point x="569" y="-112" type="line"/>
      <point x="537" y="-226" type="line"/>
      <point x="552" y="89" type="line"/>
      <point x="603" y="663" type="line"/>
      <point x="645" y="600" type="line"/>
      <point x="359" y="600" type="line"/>
      <point x="406" y="663" type="line"/>
      <point x="391" y="81" type="line"/>
      <point x="371" y="64" type="line"/>
      <point x="420" y="48" type="line"/>
      <point x="377" y="103" type="line"/>
      <point x="389" y="-130" type="line"/>
      <point x="423" y="-56" type="line"/>
      <point x="342" y="-111" type="line"/>
      <point x="433" y="-101" type="line"/>
      <point x="129" y="-56" type="line"/>
      <point x="202" y="-110" type="line"/>
      <point x="186" y="-14" type="line"/>
      <point x="121" y="-103" type="line"/>
      <point x="487" y="133" type="line"/>
      <point x="516" y="125" type="line"/>
      <point x="189" y="187" type="line"/>
      <point x="246" y="134" type="line"/>
      <point x="313" y="636" type="line"/>
      <point x="354" y="510" type="line"/>
      <point x="240" y="650" type="line"/>
      <point x="308" y="600" type="line"/>
      <point x="-21" y="603" type="line"/>
      <point x="53" y="652" type="line"/>
      <point x="34" y="358" type="line"/>
      <point x="-49" y="411" type="line"/>
      <point x="217" y="449" type="line"/>
      <point x="146" y="491" type="line"/>
      <point x="20" y="29" type="line"/>
      <point x="-35" y="107" type="line"/>
      <point x="251" y="10" type="line"/>
      <point x="227" y="41" type="line"/>
      <point x="-33" y="-143" type="line"/>
      <point x="51" y="-38" type="line"/>
      <point x="47" y="-251" type="line"/>
    </contour>
  </outline>
</glyph>
<glyph name="exclamdown" format="2">
  <advance width="319"/>
  <unicode hex="00A1"/>
  <outline>
    <contour>
      <point x="268" y="391" type="line"/>
      <point x="286" y="639" type="line"/>
      <point x="324" y="606" type="line"/>
      <point x="53" y="600" type="line"/>
      <point x="105" y="633" type="line"/>
      <point x="95" y="395" type="line"/>
      <point x="55" y="443" type="line"/>
      <point x="291" y="439" type="line"/>
    </contour>
    <contour>
      <point x="303" y="-220" type="line"/>
      <point x="249" y="-325" type="line"/>
      <point x="259" y="385" type="line"/>
      <point x="301" y="360" type="line"/>
      <point x="55" y="363" type="line"/>
      <point x="105" y="402" type="line"/>
      <point x="28" y="-307" type="line"/>
      <point x="-14" y="-220" type="line"/>
    </contour>
  </outline>
</glyph>
<glyph name="section" format="2">
  <advance width="652"/>
  <unicode hex="00A7"/>
  <outline>
    <contour>
      <point x="326" y="489" type="line"/>
      <point x="206" y="570" type="line"/>
      <point x="253" y="448" type="line"/>
      <point x="267" y="662" type="line"/>
      <point x="219" y="587" type="line"/>
      <point x="310" y="634" type="line"/>
      <point x="273" y="629" type="line"/>
      <point x="570" y="589" type="line"/>
      <point x="531" y="533" type="line"/>
      <point x="583" y="824" type="line"/>
      <point x="603" y="783" type="line"/>
      <point x="277" y="797" type="line"/>
      <point x="310" y="802" type="line"/>
      <point x="64" y="676" type="line"/>
      <point x="104" y="769" type="line"/>
      <point x="56" y="367" type="line"/>
      <point x="20" y="484" type="line"/>
      <point x="301" y="366" type="line"/>
      <point x="166" y="395" type="line"/>
      <point x="462" y="414" type="line"/>
      <point x="367" y="423" type="line"/>
      <point x="438" y="364" type="line"/>
      <point x="425" y="426" type="line"/>
      <point x="413" y="210" type="line"/>
      <point x="440" y="296" type="line"/>
      <point x="332" y="224" type="line"/>
      <point x="375" y="169" type="line"/>
      <point x="614" y="301" type="line"/>
      <point x="578" y="208" type="line"/>
      <point x="610" y="522" type="line"/>
      <point x="629" y="426" type="line"/>
      <point x="431" y="549" type="line"/>
      <point x="607" y="543" type="line"/>
      <point x="203" y="511" type="line"/>
    </contour>
    <contour>
      <point x="326" y="151" type="line"/>
      <point x="446" y="70" type="line"/>
      <point x="399" y="192" type="line"/>
      <point x="385" y="-22" type="line"/>
      <point x="433" y="53" type="line"/>
      <point x="342" y="6" type="line"/>
      <point x="379" y="11" type="line"/>
      <point x="82" y="51" type="line"/>
      <point x="121" y="107" type="line"/>
      <point x="69" y="-184" type="line"/>
      <point x="49" y="-143" type="line"/>
      <point x="375" y="-157" type="line"/>
      <point x="342" y="-162" type="line"/>
      <point x="588" y="-36" type="line"/>
      <point x="548" y="-129" type="line"/>
      <point x="596" y="273" type="line"/>
      <point x="632" y="156" type="line"/>
      <point x="351" y="274" type="line"/>
      <point x="486" y="245" type="line"/>
      <point x="190" y="226" type="line"/>
      <point x="285" y="217" type="line"/>
      <point x="214" y="276" type="line"/>
      <point x="227" y="214" type="line"/>
      <point x="239" y="430" type="line"/>
      <point x="212" y="344" type="line"/>
      <point x="320" y="416" type="line"/>
      <point x="277" y="471" type="line"/>
      <point x="38" y="339" type="line"/>
      <point x="74" y="432" type="line"/>
      <point x="42" y="118" type="line"/>
      <point x="23" y="214" type="line"/>
      <point x="221" y="91" type="line"/>
      <point x="45" y="97" type="line"/>
      <point x="449" y="129" type="line"/>
    </contour>
  </outline>
</glyph>
<glyph name="AE" format="2">
  <advance width="899"/>
  <unicode hex="00C6"/>
  <outline>
    <contour>
      <point x="130" y="614" type="line"/>
      <point x="10" y="-44" type="line"/>
      <point x="-27" y="0" type="line"/>
      <point x="269" y="0" type="line"/>
      <point x="221" y="-44" type="line"/>
      <point x="308" y="684" type="line"/>
      <point x="344" y="695" type="line"/>
      <point x="159" y="594" type="line"/>
      <point x="184" y="659" type="line"/>
      <point x="214" y="560" type="line"/>
      <point x="243" y="623" type="line"/>
      <point x="171" y="587" type="line"/>
      <point x="72" y="526" type="line"/>
    </contour>
    <contour>
      <point x="187" y="357" type="line"/>
      <point x="188" y="248" type="line"/>
      <point x="520" y="332" type="line"/>
      <point x="523" y="443" type="line"/>
    </contour>
    <contour>
      <point x="595" y="467" type="line"/>
      <point x="582" y="332" type="line"/>
      <point x="838" y="329" type="line"/>
      <point x="805" y="295" type="line"/>
      <point x="821" y="545" type="line"/>
      <point x="852" y="485" type="line"/>
    </contour>
    <contour>
      <point x="488" y="628" type="line"/>
      <point x="373" y="661" type="line"/>
      <point x="456" y="591" type="line"/>
      <point x="437" y="685" type="line"/>
      <point x="397" y="-54" type="line"/>
      <point x="354" y="85" type="line"/>
      <point x="468" y="-55" type="line"/>
      <point x="365" y="0" type="line"/>
      <point x="945" y="0" type="line"/>
      <point x="868" y="-52" type="line"/>
      <point x="887" y="242" type="line"/>
      <point x="973" y="197" type="line"/>
      <point x="552" y="168" type="line"/>
      <point x="594" y="131" type="line"/>
      <point x="608" y="350" type="line"/>
      <point x="613" y="446" type="line"/>
      <point x="628" y="682" type="line"/>
      <point x="571" y="576" type="line"/>
      <point x="694" y="645" type="line"/>
      <point x="602" y="620" type="line"/>
      <point x="919" y="592" type="line"/>
      <point x="872" y="571" type="line"/>
      <point x="931" y="860" type="line"/>
      <point x="1003" y="790" type="line"/>
      <point x="579" y="801" type="line"/>
      <point x="768" y="861" type="line"/>
      <point x="481" y="722" type="line"/>
      <point x="600" y="710" type="line"/>
      <point x="424" y="844" type="line"/>
      <point x="625" y="790" type="line"/>
      <point x="-34" y="793" type="line"/>
      <point x="40" y="842" type="line"/>
      <point x="21" y="548" type="line"/>
      <point x="-62" y="588" type="line"/>
    </contour>
  </outline>
</glyph>
<glyph name="Aogonek" format="2">
  <advance width="698"/>
  <unicode hex="0104"/>
  <anchor x="606" y="0" name="ogonek"/>
  <anchor x="372" y="790" name="top"/>
  <outline>
    <contour>
      <point x="130" y="614" type="line"/>
      <point x="10" y="-44" type="line"/>
      <point x="-27" y="0" type="line"/>
      <point x="269" y="0" type="line"/>
      <point x="221" y="-44" type="line"/>
      <point x="308" y="684" type="line"/>
      <point x="344" y="695" type="line"/>
      <point x="159" y="594" type="line"/>
      <point x="185" y="659" type="line"/>
      <point x="215" y="560" type="line"/>
      <point x="243" y="624" type="line"/>
      <point x="171" y="588" type="line"/>
      <point x="72" y="527" type="line"/>
    </contour>
    <contour>
      <point x="187" y="357" type="line"/>
      <point x="188" y="248" type="line"/>
      <point x="520" y="332" type="line"/>
      <point x="523" y="443" type="line"/>
    </contour>
    <contour>
      <point x="683" y="13" type="line"/>
      <point x="660" y="-52" type="line"/>
      <point x="679" y="242" type="line"/>
      <point x="762" y="197" type="line"/>
      <point x="540" y="177" type="line"/>
      <point x="591" y="94" type="line"/>
      <point x="664" y="862" type="line"/>
      <point x="702" y="632" type="line"/>
      <point x="424" y="844" type="line"/>
      <point x="625" y="790" type="line"/>
      <point x="-34" y="793" type="line"/>
      <point x="40" y="842" type="line"/>
      <point x="21" y="548" type="line"/>
      <point x="-62" y="588" type="line"/>
      <point x="488" y="628" type="line"/>
      <point x="373" y="661" type="line"/>
      <point x="456" y="591" type="line"/>
      <point x="437" y="685" type="line"/>
      <point x="397" y="-54" type="line"/>
      <point x="354" y="85" type="line"/>
      <point x="468" y="-55" type="line"/>
      <point x="369" y="0" type="line"/>
      <point x="588" y="-2" type="line"/>
      <point x="538" y="23" type="line"/>
      <point x="568" y="-38" type="line"/>
      <point x="581" y="11" type="line"/>
      <point x="491" y="-40" type="line"/>
      <point x="500" y="15" type="line"/>
      <point x="500" y="-198" type="line"/>
      <point x="486" y="-153" type="line"/>
      <point x="600" y="-221" type="line"/>
      <point x="558" y="-227" type="line"/>
      <point x="701" y="-189" type="line"/>
      <point x="688" y="-205" type="line"/>
      <point x="654" y="-105" type="line"/>
      <point x="680" y="-111" type="line"/>
      <point x="571" y="-148" type="line"/>
      <point x="616" y="-144" type="line"/>
      <point x="553" y="-107" type="line"/>
      <point x="570" y="-137" type="line"/>
      <point x="575" y="6" type="line"/>
      <point x="557" y="-75" type="line"/>
    </contour>
  </outline>
</glyph>
<glyph name="Schwa" format="2">
  <advance width="600"/>
  <unicode hex="018F"/>
  <outline>
    <contour>
      <point x="379" y="173" type="line"/>
      <point x="113" y="229" type="line"/>
      <point x="197" y="200" type="line"/>
      <point x="211" y="449" type="line"/>
      <point x="60" y="274" type="line"/>
      <point x="457" y="494" type="line"/>
      <point x="439" y="597" type="line"/>
      <point x="-98" y="330" type="line"/>
      <point x="46" y="448" type="line"/>
      <point x="-38" y="67" type="line"/>
      <point x="-183" y="179" type="line"/>
      <point x="363" y="-57" type="line"/>
      <point x="180" y="-70" type="line"/>
      <point x="701" y="179" type="line"/>
      <point x="544" y="-4" type="line"/>
      <point x="608" y="783" type="line"/>
      <point x="663" y="652" type="line"/>
      <point x="228" y="843" type="line"/>
      <point x="460" y="803" type="line"/>
      <point x="-55" y="790" type="line"/>
      <point x="15" y="831" type="line"/>
      <point x="25" y="512" type="line"/>
      <point x="-20" y="589" type="line"/>
      <point x="277" y="623" type="line"/>
      <point x="161" y="630" type="line"/>
      <point x="405" y="577" type="line"/>
      <point x="379" y="646" type="line"/>
      <point x="365" y="169" type="line"/>
      <point x="408" y="216" type="line"/>
      <point x="275" y="140" type="line"/>
    </contour>
  </outline>
</glyph>
<glyph name="schwa" format="2">
  <advance width="546"/>
  <unicode hex="0259"/>
  <outline>
    <contour>
      <point x="340" y="145" type="line"/>
      <point x="139" y="188" type="line"/>
      <point x="221" y="146" type="line"/>
      <point x="231" y="343" type="line"/>
      <point x="98" y="210" type="line"/>
      <point x="399" y="377" type="line"/>
      <point x="385" y="440" type="line"/>
      <point x="-21" y="238" type="line"/>
      <point x="81" y="309" type="line"/>
      <point x="7" y="40" type="line"/>
      <point x="-85" y="132" type="line"/>
      <point x="327" y="-47" type="line"/>
      <point x="190" y="-56" type="line"/>
      <point x="583" y="132" type="line"/>
      <point x="464" y="-8" type="line"/>
      <point x="512" y="595" type="line"/>
      <point x="555" y="496" type="line"/>
      <point x="225" y="640" type="line"/>
      <point x="401" y="610" type="line"/>
      <point x="17" y="600" type="line"/>
      <point x="70" y="632" type="line"/>
      <point x="77" y="390" type="line"/>
      <point x="43" y="417" type="line"/>
      <point x="262" y="443" type="line"/>
      <point x="170" y="452" type="line"/>
      <point x="356" y="418" type="line"/>
      <point x="325" y="491" type="line"/>
      <point x="315" y="123" type="line"/>
      <point x="359" y="185" type="line"/>
      <point x="258" y="128" type="line"/>
    </contour>
  </outline>
</glyph>
<glyph name="dieresiscomb" format="2">
  <advance width="489"/>
  <unicode hex="0308"/>
  <anchor x="232" y="600" name="_top"/>
  <outline>
    <contour>
      <point x="194" y="633" type="line"/>
      <point x="226" y="861" type="line"/>
      <point x="259" y="831" type="line"/>
      <point x="10" y="825" type="line"/>
      <point x="58" y="856" type="line"/>
      <point x="48" y="637" type="line"/>
      <point x="12" y="679" type="line"/>
      <point x="229" y="675" type="line"/>
    </contour>
    <contour>
      <point x="411" y="633" type="line"/>
      <point x="443" y="861" type="line"/>
      <point x="476" y="831" type="line"/>
      <point x="227" y="825" type="line"/>
      <point x="275" y="856" type="line"/>
      <point x="265" y="637" type="line"/>
      <point x="229" y="679" type="line"/>
      <point x="446" y="675" type="line"/>
    </contour>
  </outline>
</glyph>
<glyph name="bullet" format="2">
  <advance width="245"/>
  <unicode hex="2022"/>
  <outline>
    <contour>
      <point x="37" y="410" type="line"/>
      <point x="35" y="247" type="line"/>
      <point x="8" y="283" type="line"/>
      <point x="152" y="224" type="line"/>
      <point x="117" y="222" type="line"/>
      <point x="231" y="279" type="line"/>
      <point x="199" y="243" type="line"/>
      <point x="212" y="409" type="line"/>
      <point x="231" y="372" type="line"/>
      <point x="90" y="432" type="line"/>
      <point x="135" y="435" type="line"/>
      <point x="8" y="371" type="line"/>
    </contour>
  </outline>
</glyph>
